<svg width="24" height="24" viewBox="0 0 24 24" fill="none" xmlns="http://www.w3.org/2000/svg">
<path d="M16.6187 0C16.6745 0 16.7304 0 16.7894 0C16.9264 1.69253 16.2804 2.95719 15.4952 3.87301C14.7248 4.78251 13.6699 5.6646 11.9637 5.53076C11.8498 3.86247 12.4969 2.69161 13.281 1.77789C14.0082 0.92636 15.3413 0.168621 16.6187 0Z" fill="currentColor"/>
<path d="M21.7837 17.6167C21.7837 17.6335 21.7837 17.6483 21.7837 17.6641C21.3042 19.1163 20.6202 20.361 19.7856 21.516C19.0236 22.5646 18.0899 23.9758 16.4226 23.9758C14.982 23.9758 14.025 23.0494 12.5486 23.0241C10.9867 22.9988 10.1278 23.7987 8.69979 24C8.53644 24 8.37309 24 8.2129 24C7.16429 23.8482 6.31802 23.0178 5.7015 22.2695C3.88356 20.0585 2.47874 17.2025 2.21738 13.5476C2.21738 13.1893 2.21738 12.832 2.21738 12.4737C2.32803 9.858 3.59901 7.73127 5.28838 6.70057C6.17996 6.15256 7.40563 5.68569 8.7704 5.89436C9.3553 5.98499 9.95285 6.18523 10.4766 6.38336C10.973 6.57411 11.5937 6.9124 12.1818 6.89449C12.5802 6.88289 12.9764 6.67528 13.378 6.52879C14.5541 6.10408 15.707 5.61718 17.2267 5.84588C19.0531 6.12199 20.3494 6.93348 21.1503 8.18549C19.6053 9.16876 18.3839 10.6505 18.5926 13.1809C18.778 15.4794 20.1144 16.8241 21.7837 17.6167Z" fill="currentColor"/>
</svg>
