<svg width="24" height="24" viewBox="0 0 24 24" fill="none" xmlns="http://www.w3.org/2000/svg">
<path d="M15.4 2C15.1621 2.42609 14.9501 2.86612 14.7651 3.31772C12.9476 3.03028 11.0961 3.03028 9.2786 3.31772C9.09363 2.86612 8.88161 2.42609 8.6437 2C6.93161 2.29253 5.26723 2.81643 3.69627 3.5573C0.887066 7.61142 -0.386931 12.5333 0.102496 17.4412C1.93321 18.8175 3.98791 19.8671 6.17597 20.5439C6.67421 19.8857 7.11886 19.1887 7.50567 18.4595C6.7918 18.1963 6.10565 17.8632 5.45722 17.4652C5.63506 17.3469 5.8033 17.2147 5.96035 17.0699C7.85122 17.9807 9.92304 18.4537 12.0218 18.4537C14.1206 18.4537 16.1925 17.9807 18.0833 17.0699C18.2511 17.2136 18.4188 17.3454 18.5865 17.4652C17.9345 17.8601 17.249 18.1968 16.538 18.4715C16.9088 19.2172 17.3416 19.9305 17.8318 20.6038C20.0171 19.9294 22.0683 18.8795 23.8933 17.5011C24.3945 12.5923 23.1194 7.6664 20.2995 3.6172C18.7462 2.86099 17.0983 2.31706 15.4 2ZM8.04474 14.6381C7.44528 14.5951 6.8858 14.3215 6.48375 13.8748C6.0817 13.428 5.86834 12.8429 5.88847 12.2423C5.8653 11.6408 6.07761 11.054 6.48026 10.6066C6.88291 10.1592 7.44417 9.8865 8.04474 9.84641C8.6453 9.8865 9.20656 10.1592 9.60921 10.6066C10.0119 11.054 10.2242 11.6408 10.201 12.2423C10.2242 12.8437 10.0119 13.4305 9.60921 13.8779C9.20656 14.3253 8.6453 14.598 8.04474 14.6381ZM15.999 14.6381C15.3995 14.5951 14.84 14.3215 14.438 13.8748C14.0359 13.428 13.8226 12.8429 13.8427 12.2423C13.8195 11.6408 14.0318 11.054 14.4345 10.6066C14.8371 10.1592 15.3984 9.8865 15.999 9.84641C16.6006 9.88351 17.1637 10.1554 17.567 10.6034C17.9702 11.0515 18.1815 11.64 18.1552 12.2423C18.1815 12.8445 17.9702 13.433 17.567 13.8811C17.1637 14.3292 16.6006 14.601 15.999 14.6381Z" fill="currentColor"/>
</svg>
