<svg width="24" height="24" viewBox="0 0 24 24" fill="none" xmlns="http://www.w3.org/2000/svg">
<path d="M14.038 0.00732422H9.95541C4.54593 0.00732422 0.157128 4.39612 0.106079 9.80561V10.0608C0.106079 10.6221 0.565374 11.0814 1.12672 11.0814H22.8667C23.377 11.0814 23.8363 10.6221 23.8873 10.1118V9.85661C23.8873 4.39612 19.4474 0.00732422 14.038 0.00732422ZM2.1984 9.09112C2.55565 5.11056 5.92381 1.99755 9.95536 1.99755H14.038C18.0696 1.99755 21.4377 5.11056 21.846 9.09112H2.1984Z" fill="currentColor"/>
<path d="M23.6321 17.8688C23.428 17.6136 23.1218 17.4605 22.8156 17.4605H1.12672C0.820519 17.4605 0.514323 17.6136 0.310176 17.8688C0.106029 18.175 0.0550283 18.4811 0.157078 18.7873L0.76947 20.6245C1.43291 22.6148 3.21904 23.9927 5.26036 23.9927H18.733C20.7233 23.9927 22.5605 22.6148 23.2239 20.6245L23.7852 18.7873C23.8873 18.4811 23.8363 18.124 23.6321 17.8688ZM21.2847 20.0121C20.8764 21.1859 19.8557 22.0024 18.682 22.0024H5.26036C4.08663 22.0024 3.01494 21.1859 2.6577 20.0121L2.5046 19.4508H21.4377L21.2847 20.0121Z" fill="currentColor"/>
<path d="M23.5811 14.6027L21.6418 13.2248C20.315 12.2552 18.4778 12.2552 17.151 13.2248L16.9468 13.3779C16.2834 13.8372 15.3648 13.8372 14.7524 13.3779L14.3441 13.0717C13.0173 12.1021 11.1801 12.1021 9.85324 13.0717L9.24085 13.531C8.57741 13.9903 7.65882 13.9903 7.04643 13.531C5.82164 12.6124 4.08652 12.5614 2.75968 13.3779L0.514258 14.7558C0.00391503 15.062 -0.149183 15.6744 0.157013 16.1337C0.36116 16.4399 0.667309 16.593 1.02455 16.593C1.17765 16.593 1.3818 16.5419 1.5349 16.4399L3.78032 15.062C4.44376 14.6537 5.3113 14.7047 5.87265 15.113C7.19948 16.0827 9.03666 16.0827 10.3635 15.113L10.9759 14.6537C11.6394 14.1944 12.558 14.1944 13.1704 14.6537L13.5786 14.9599C14.9054 15.9296 16.7426 15.9296 18.0695 14.9599L18.2736 14.8068C18.9371 14.3475 19.8557 14.3475 20.4681 14.8068L22.4073 16.1847C22.8155 16.542 23.479 16.4399 23.7852 15.9806C24.1424 15.5723 24.0404 14.9089 23.5811 14.6027Z" fill="currentColor"/>
</svg>
