<svg width="24" height="24" viewBox="0 0 24 24" fill="none" xmlns="http://www.w3.org/2000/svg">
<path d="M14.038 0.00732422H9.95541C4.54593 0.00732422 0.157128 4.39612 0.106079 9.80561V10.0608C0.106079 10.6221 0.565374 11.0814 1.12672 11.0814H22.8667C23.377 11.0814 23.8363 10.6221 23.8873 10.1118V9.85661C23.8873 4.39612 19.4474 0.00732422 14.038 0.00732422ZM2.1984 9.09111C2.55565 5.11056 5.92381 1.99755 9.95536 1.99755H14.038C18.0696 1.99755 21.4377 5.11056 21.846 9.09111H2.1984Z" fill="currentColor"/>
<path d="M23.6321 17.8688C23.428 17.6136 23.1218 17.4605 22.8156 17.4605H1.12672C0.820519 17.4605 0.514323 17.6136 0.310176 17.8688C0.106029 18.175 0.0550283 18.4811 0.157078 18.7873L0.76947 20.6245C1.43291 22.6148 3.21904 23.9927 5.26037 23.9927H18.733C20.7233 23.9927 22.5605 22.6148 23.2239 20.6245L23.7852 18.7873C23.8873 18.4811 23.8363 18.124 23.6321 17.8688ZM21.2847 20.0121C20.8764 21.1859 19.8557 22.0024 18.682 22.0024H5.26037C4.08663 22.0024 3.01494 21.1859 2.6577 20.0121L2.5046 19.4508H21.4377L21.2847 20.0121Z" fill="currentColor"/>
<path d="M23.5812 14.2582L21.6419 12.8803C20.3151 11.9107 18.4779 11.9107 17.151 12.8803L16.9469 13.0334C16.2835 13.4927 15.3649 13.4927 14.7525 13.0334L14.3442 12.7272C13.0174 11.7576 11.1802 11.7576 9.85334 12.7272L9.24094 13.1865C8.5775 13.6458 7.65891 13.6458 7.04652 13.1865C5.82174 12.2679 4.08661 12.2169 2.75977 13.0334L0.51435 14.4113C0.00400658 14.7175 -0.149092 15.3299 0.157105 15.7892C0.361252 16.0954 0.6674 16.2485 1.02464 16.2485C1.17774 16.2485 1.38189 16.1974 1.53499 16.0954L3.78041 14.7175C4.44385 14.3093 5.31139 14.3603 5.87274 14.7686C7.19957 15.7382 9.03675 15.7382 10.3636 14.7686L10.976 14.3093C11.6395 13.85 12.5581 13.85 13.1704 14.3093L13.5787 14.6155C14.9055 15.5851 16.7427 15.5851 18.0696 14.6155L18.2737 14.4624C18.9372 14.0031 19.8558 14.0031 20.4682 14.4624L22.4074 15.8402C22.8156 16.1975 23.4791 16.0954 23.7853 15.6361C24.1425 15.2278 24.0405 14.5644 23.5812 14.2582Z" fill="currentColor"/>
</svg>
