<svg width="24" height="24" viewBox="0 0 24 24" fill="none" xmlns="http://www.w3.org/2000/svg">
<path d="M17.6925 11.1235C17.5886 11.0737 17.4836 11.0261 17.3777 10.9806C17.1925 7.56725 15.3274 5.61312 12.1956 5.59312H12.1531C10.2799 5.59312 8.72199 6.39262 7.76312 7.8475L9.48562 9.029C10.2019 7.94225 11.326 7.7105 12.154 7.7105H12.1827C13.2137 7.71725 13.9919 8.017 14.4955 8.60175C14.862 9.02738 15.1071 9.6155 15.2285 10.358C14.3142 10.2025 13.3255 10.1547 12.2685 10.2154C9.29099 10.3869 7.37674 12.1235 7.50537 14.5365C7.57062 15.7605 8.18037 16.8135 9.22224 17.5014C10.1031 18.0829 11.2377 18.3673 12.4169 18.3029C13.9741 18.2175 15.1957 17.6234 16.0481 16.537C16.6952 15.712 17.1046 14.6429 17.2854 13.2957C18.0275 13.7436 18.5775 14.333 18.8812 15.0415C19.3977 16.2459 19.4279 18.225 17.813 19.8385C16.3981 21.252 14.6974 21.8635 12.127 21.8822C9.27587 21.8612 7.11949 20.9469 5.71762 19.1646C4.40474 17.4958 3.72637 15.0852 3.70099 12C3.72637 8.91475 4.40474 6.50425 5.71762 4.83537C7.11962 3.05312 9.27587 2.13875 12.127 2.1175C14.9989 2.13875 17.1927 3.0575 18.6484 4.8485C19.3621 5.72662 19.9002 6.831 20.255 8.11875L22.2734 7.58025C21.8434 5.99525 21.1667 4.6295 20.246 3.49675C18.38 1.201 15.6506 0.024375 12.134 0H12.1199C8.61049 0.024375 5.91174 1.20537 4.09874 3.51C2.48549 5.56087 1.65324 8.4145 1.62524 11.9916V12.0085C1.65324 15.5855 2.48549 18.4392 4.09874 20.4902C5.91174 22.7949 8.61037 23.9759 12.12 24H12.134C15.254 23.9784 17.4532 23.1615 19.265 21.3512C21.6354 18.9832 21.564 16.0149 20.7827 14.1925C20.2222 12.8859 19.1537 11.8245 17.6925 11.1235ZM12.3055 16.1884C11.0005 16.2619 9.64474 15.6761 9.57787 14.4215C9.52837 13.4913 10.2399 12.4532 12.3856 12.3296C12.6314 12.3155 12.8725 12.3085 13.1094 12.3085C13.8887 12.3085 14.6179 12.3843 15.2806 12.5291C15.0335 15.6169 13.5831 16.1182 12.3055 16.1884Z" fill="currentColor"/>
</svg>
