<svg width="24" height="24" viewBox="0 0 24 24" fill="none" xmlns="http://www.w3.org/2000/svg">
<path d="M8.59856 13.7153C7.99147 15.3833 8.85184 17.2275 10.52 17.834V17.834C12.1874 18.4403 14.0306 17.5804 14.6374 15.9132L16.3465 11.2174C16.9535 9.54983 16.0936 7.70594 14.426 7.09902V7.09902C12.7584 6.49212 10.9146 7.35193 10.3077 9.01948L8.59856 13.7153Z" fill="currentColor"/>
<path d="M2.12501 15.7114C2.58442 17.426 4.347 18.4432 6.06138 17.9832V17.9832C7.77495 17.5235 8.79161 15.7619 8.33242 14.0482L7.03906 9.22126C6.57975 7.5071 4.81779 6.48987 3.10365 6.94922V6.94922C1.38956 7.40855 0.372361 9.17044 0.831652 10.8845L2.12501 15.7114Z" fill="currentColor"/>
<path d="M15.4033 13.7209C14.7962 15.3889 15.6566 17.2331 17.3248 17.8397V17.8397C18.9921 18.4459 20.8353 17.586 21.4421 15.9189L23.1513 11.223C23.7582 9.55545 22.8984 7.71156 21.2308 7.10464V7.10464C19.5632 6.49774 17.7194 7.35755 17.1124 9.0251L15.4033 13.7209Z" fill="currentColor"/>
</svg>
