<svg width="24" height="24" viewBox="0 0 24 24" fill="none" xmlns="http://www.w3.org/2000/svg">
<path d="M23.953 4.57C23.0545 4.9656 22.1026 5.22674 21.128 5.345C22.1541 4.72825 22.9224 3.76104 23.291 2.622C22.34 3.177 21.286 3.581 20.164 3.806C19.4238 3.01443 18.4429 2.48942 17.3736 2.3125C16.3044 2.13558 15.2067 2.31665 14.2509 2.82759C13.2952 3.33853 12.5349 4.15075 12.0881 5.13812C11.6412 6.12549 11.533 7.23277 11.78 8.288C7.69 8.095 4.067 6.13 1.64 3.162C1.19879 3.91181 0.968664 4.76702 0.974 5.637C0.974 7.347 1.844 8.85 3.162 9.733C2.38086 9.70813 1.61697 9.49693 0.934 9.117V9.177C0.933557 10.3134 1.32627 11.4149 2.04551 12.2948C2.76474 13.1746 3.76621 13.7785 4.88 14.004C4.1583 14.1974 3.40241 14.2264 2.668 14.089C2.98412 15.067 3.59766 15.9219 4.42301 16.5345C5.24837 17.1471 6.24435 17.4867 7.272 17.506C5.53153 18.8719 3.38248 19.6133 1.17 19.611C0.78 19.611 0.391 19.588 0 19.544C2.25571 20.9883 4.87851 21.755 7.557 21.753C16.61 21.753 21.555 14.257 21.555 7.768C21.555 7.558 21.555 7.348 21.54 7.138C22.506 6.44286 23.3392 5.57981 24 4.59L23.953 4.57Z" fill="currentColor"/>
</svg>
