<svg width="24" height="24" viewBox="0 0 24 24" fill="none" xmlns="http://www.w3.org/2000/svg">
<path d="M8.35606 13.2944C7.71206 15.0638 8.62473 17.0202 10.3943 17.6636C12.1631 18.3067 14.1183 17.3945 14.762 15.626L16.5751 10.6447C17.2189 8.87574 16.3068 6.91974 14.5378 6.27592C12.7688 5.63213 10.8129 6.54422 10.1691 8.31314L8.35606 13.2944Z" fill="currentColor"/>
<path d="M1.48898 15.4119C1.97632 17.2307 3.84606 18.3098 5.66467 17.8218C7.48242 17.3341 8.56089 15.4654 8.07378 13.6475L6.70179 8.52719C6.21455 6.70882 4.34547 5.62974 2.52711 6.11701C0.708815 6.60427 -0.370226 8.47327 0.116989 10.2916L1.48898 15.4119Z" fill="currentColor"/>
<path d="M15.5745 13.3004C14.9305 15.0698 15.8432 17.0262 17.6128 17.6696C19.3815 18.3127 21.3368 17.4005 21.9805 15.632L23.7935 10.6507C24.4374 8.88173 23.5252 6.92573 21.7562 6.28192C19.9873 5.63812 18.0314 6.55021 17.3875 8.31914L15.5745 13.3004Z" fill="currentColor"/>
</svg>
