<svg width="24" height="24" viewBox="0 0 24 24" fill="none" xmlns="http://www.w3.org/2000/svg">
<path fill-rule="evenodd" clip-rule="evenodd" d="M12 24C18.6274 24 24 18.6274 24 12C24 5.37258 18.6274 0 12 0C5.37258 0 0 5.37258 0 12C0 18.6274 5.37258 24 12 24ZM9.54779 13.5007C9.53099 13.6695 9.5332 13.8376 9.55313 14.0024C9.56952 13.8378 9.56823 13.6698 9.54779 13.5007ZM14.4674 13.2483L14.0062 14.5155C13.5711 15.7109 12.2495 16.3275 11.0539 15.8928C10.2098 15.5859 9.6541 14.837 9.55313 14.0024C9.46092 14.9285 8.8089 15.7443 7.85687 15.9997C6.62759 16.3296 5.36374 15.6002 5.03432 14.3708L4.10693 10.9097C3.77759 9.68059 4.50697 8.41723 5.73605 8.08787C6.96517 7.7585 8.22857 8.48791 8.55791 9.71703L9.48531 13.1781C9.51411 13.2856 9.53481 13.3934 9.54779 13.5007C9.56648 13.3131 9.60867 13.1248 9.67612 12.9394L10.9016 9.57235C11.3368 8.37664 12.6589 7.76012 13.8547 8.19529C14.9495 8.59375 15.5588 9.73578 15.3197 10.8435L14.5554 12.9435C14.5187 13.0444 14.4895 13.1462 14.4674 13.2483ZM14.4674 13.2483C14.2283 14.3563 14.838 15.4986 15.9332 15.8968C17.1288 16.3315 18.4504 15.715 18.8855 14.5195L20.111 11.1524C20.5463 9.95668 19.9297 8.63453 18.734 8.19934C17.5382 7.76417 16.2161 8.38069 15.7809 9.5764L15.3197 10.8435C15.2977 10.9456 15.2685 11.0475 15.2317 11.1484L14.4674 13.2483Z" fill="currentColor"/>
</svg>
